
<svg xmlns="http://www.w3.org/2000/svg" version="1.1" xmlns:xlink="http://www.w3.org/1999/xlink" preserveAspectRatio="none" x="0px" y="0px" width="323px" height="36px" viewBox="0 0 323 36">
<defs>
<g id="Layer0_0_FILL">
<path fill="#333333" stroke="none" d="
M 14 22
L 14 21 7 21 7 35 1 35 1 36 8 36 8 22 14 22
M 15 15
L 14 15 14 21 15 21 15 15
M 8 1
L 7 1 7 14 8 14 8 1
M 22 22
L 21 22 21 35 15 35 15 36 22 36 22 22
M 22 1
L 21 1 21 14 15 14 15 15 22 15 22 1
M 43 1
L 42 1 42 35 36 35 36 36 43 36 43 1
M 78 22
L 77 22 77 35 71 35 71 36 78 36 78 22
M 70 22
L 70 21 63 21 63 35 57 35 57 36 64 36 64 22 70 22
M 78 1
L 77 1 77 14 70.75 14 70.75 15 70 15 70 21 71 21 71 15 78 15 78 1
M 69.75 8
L 69.75 7 63 7 63 14 64 14 64 8 69.75 8
M 99 1
L 98 1 98 28 99 28 99 1
M 113 1
L 112 1 112 35 92 35 92 36 113 36 113 1
M 134 8
L 140 8 140 7 133 7 133 14 134 14 134 8
M 148 22
L 148 1 147 1 147 21 133 21 133 35 127 35 127 36 134 36 134 22 148 22
M 182 35
L 176 35 176 36 183 36 183 1 182 1 182 35
M 175 22
L 175 21 168 21 168 35 162 35 162 36 169 36 169 22 175 22
M 175 8
L 175 7 168 7 168 14 169 14 169 8 175 8
M 204 36
L 204 29 203 29 203 35 197 35 197 36 204 36
M 218 35
L 218 36 239 36 239 29 238 29 238 35 218 35
M 239 8
L 239 1 238 1 238 7 224 7 224 28 225 28 225 8 239 8
M 266 8
L 266 7 259 7 259 28 260 28 260 8 266 8
M 274 1
L 273 1 273 35 253 35 253 36 274 36 274 1
M 295 8
L 301 8 301 7 294 7 294 35 288 35 288 36 295 36 295 8
M 309 8
L 315 8 315 7 308 7 308 35 302 35 302 36 309 36 309 8
M 323 1
L 322 1 322 35 316 35 316 36 323 36 323 1 Z"/>

<path fill="#00CCFF" stroke="none" d="
M 7 1
L 7 0 0 0 0 35 1 35 7 35 7 21 14 21 14 15 14 14 8 14 7 14 7 1
M 21 22
L 21 21 15 21 14 21 14 22 14 35 15 35 21 35 21 22
M 21 1
L 21 0 14 0 14 14 15 14 21 14 21 1
M 42 1
L 42 0 35 0 35 35 36 35 42 35 42 1
M 70 21
L 70 22 70 35 71 35 77 35 77 22 77 21 71 21 70 21
M 77 1
L 77 0 56 0 56 35 57 35 63 35 63 21 70 21 70 15 70 14 70.75 14 77 14 77 1
M 69.75 7
L 69.75 8 69.75 14 64 14 63 14 63 7 69.75 7
M 112 0
L 105 0 105 28 99 28 98 28 98 1 98 0 91 0 91 35 92 35 112 35 112 1 112 0
M 147 21
L 147 1 147 0 126 0 126 35 127 35 133 35 133 21 147 21
M 133 7
L 140 7 140 8 140 14 134 14 133 14 133 7
M 182 1
L 182 0 161 0 161 35 162 35 168 35 168 21 175 21 175 22 175 35 176 35 182 35 182 1
M 175 7
L 175 8 175 14 169 14 168 14 168 7 175 7 Z"/>

<path fill="#FFCC00" stroke="none" d="
M 203 29
L 203 28 196 28 196 35 197 35 203 35 203 29 Z"/>

<path fill="#FFFFFF" stroke="none" d="
M 238 1
L 238 0 217 0 217 35 218 35 238 35 238 29 238 28 225 28 224 28 224 7 238 7 238 1
M 273 1
L 273 0 252 0 252 35 253 35 273 35 273 1
M 266 7
L 266 8 266 28 260 28 259 28 259 7 266 7
M 322 1
L 322 0 287 0 287 35 288 35 294 35 294 7 301 7 301 8 301 35 302 35 308 35 308 7 315 7 315 8 315 35 316 35 322 35 322 1 Z"/>
</g>
</defs>

<g transform="matrix( 1, 0, 0, 1, 0,0) ">
<use xlink:href="#Layer0_0_FILL"/>
</g>
</svg>
